<?xml version="1.0" encoding="UTF-8" standalone="no"?>
<!-- Created with Inkscape (http://www.inkscape.org/) -->

<svg
   width="300mm"
   height="124mm"
   viewBox="0 0 300 124"
   version="1.1"
   id="svg1"
   xml:space="preserve"
   inkscape:version="1.3.2 (091e20ef0f, 2023-11-25, custom)"
   sodipodi:docname="zabi.svg"
   xmlns:inkscape="http://www.inkscape.org/namespaces/inkscape"
   xmlns:sodipodi="http://sodipodi.sourceforge.net/DTD/sodipodi-0.dtd"
   xmlns="http://www.w3.org/2000/svg"
   xmlns:svg="http://www.w3.org/2000/svg"><sodipodi:namedview
     id="namedview1"
     pagecolor="#ffffff"
     bordercolor="#000000"
     borderopacity="0.25"
     inkscape:showpageshadow="2"
     inkscape:pageopacity="0.0"
     inkscape:pagecheckerboard="0"
     inkscape:deskcolor="#d1d1d1"
     inkscape:document-units="mm"
     inkscape:zoom="0.78127806"
     inkscape:cx="577.25927"
     inkscape:cy="236.15152"
     inkscape:window-width="1904"
     inkscape:window-height="1024"
     inkscape:window-x="0"
     inkscape:window-y="0"
     inkscape:window-maximized="1"
     inkscape:current-layer="layer1" /><defs
     id="defs1" /><g
     inkscape:label="Layer 1"
     inkscape:groupmode="layer"
     id="layer1"><path
       id="rect1"
       style="fill:#ffffff;stroke-width:0.238915"
       d="M 0.26049123,1.786095 H 299.69454 V 124.13959 H 0.26049123 Z" /><text
       xml:space="preserve"
       style="font-style:normal;font-variant:normal;font-weight:bold;font-stretch:normal;font-size:22.5778px;font-family:'Cascadia Code';-inkscape-font-specification:'Cascadia Code, Bold';font-variant-ligatures:normal;font-variant-caps:normal;font-variant-numeric:normal;font-variant-east-asian:normal;white-space:pre;inline-size:123.588;fill:#f7a41d;fill-opacity:1;stroke-width:0.264583"
       x="114.97717"
       y="123.27025"
       id="text1"
       transform="matrix(4.6006397,0,0,5.2514177,-407.56417,-544.87147)"><tspan
         x="114.97717"
         y="123.27025"
         id="tspan2">Abi</tspan></text><g
       fill="#f7a41d"
       id="g12"
       transform="matrix(0.78751437,0,0,0.86673447,0.28236822,1.089381)"><g
         id="g3"><path
           id="polygon1"
           d="M 46,22 28,44 19,30 Z" /><path
           id="polygon2"
           style="shape-rendering:crispEdges"
           d="m 28,44 h -6 v 51 h 9 l -11,5 -8,17 H 0 V 22 H 46 L 33,33 Z" /><path
           id="polygon3"
           d="M 31,95 12,117 4,106 Z" /></g><g
         id="g8"><path
           id="polygon4"
           d="m 56,22 6,14 -25,8 z" /><path
           id="polygon5"
           style="shape-rendering:crispEdges"
           d="M 111,44 H 37 L 56,32 V 22 h 55 z" /><path
           id="polygon6"
           d="M 116,95 97,117 90,104 Z" /><path
           id="polygon7"
           style="shape-rendering:crispEdges"
           d="M 97,117 H 42 V 95 h 74 l -16,9 z" /><path
           id="polygon8"
           d="M 150,0 52,117 3,140 101,22 Z" /></g><g
         id="g11"><path
           id="polygon9"
           d="m 141,22 -1,18 -18,5 z" /><path
           id="polygon10"
           style="shape-rendering:crispEdges"
           d="m 106,117 14,-12 5,-10 h 6 V 45 h -9 l 10,-9 9,-14 h 12 v 95 z" /><path
           id="polygon11"
           d="m 125,95 5,15 -24,7 z" /></g></g></g></svg>
